<mxfile host="Electron" agent="Mozilla/5.0 (X11; Linux x86_64)" version="27.0.5">
  <diagram name="Device Discovery Subprocess" id="device-discovery-subprocess">
    <mxGraphModel dx="2192" dy="915" grid="1" gridSize="10" guides="1" tooltips="1" connect="1" arrows="1" fold="1" page="1" pageScale="1" pageWidth="1800" pageHeight="800" math="0" shadow="0">
      <root>
        <mxCell id="0" />
        <mxCell id="1" parent="0" />
        <!-- Swimlanes -->
        <mxCell id="2" value="User Interaction" style="swimlane;horizontal=1;startSize=30;fillColor=#e3f2fd;" parent="1" vertex="1">
          <mxGeometry width="1800" height="200" as="geometry" />
        </mxCell>
        <mxCell id="3" value="Backend Process" style="swimlane;horizontal=1;startSize=30;fillColor=#f3e5f5;" parent="1" vertex="1">
          <mxGeometry y="200" width="1800" height="200" as="geometry" />
        </mxCell>
        <!-- User Steps -->
        <mxCell id="4" value="Start Discovery" style="rounded=1;whiteSpace=wrap;html=1;fillColor=#dae8fc;strokeColor=#6c8ebf;" parent="2" vertex="1">
          <mxGeometry x="40" y="80" width="200" height="60" as="geometry" />
        </mxCell>
        <mxCell id="5" value="Scan Network" style="rounded=1;whiteSpace=wrap;html=1;fillColor=#bbdefb;strokeColor=#82b366;" parent="2" vertex="1">
          <mxGeometry x="300" y="80" width="200" height="60" as="geometry" />
        </mxCell>
        <mxCell id="6" value="Device Found?" style="rhombus;whiteSpace=wrap;html=1;fillColor=#fffde7;strokeColor=#d6b656;" parent="2" vertex="1">
          <mxGeometry x="560" y="80" width="120" height="80" as="geometry" />
        </mxCell>
        <mxCell id="7" value="Get Device Info" style="rounded=1;whiteSpace=wrap;html=1;fillColor=#bbdefb;strokeColor=#82b366;" parent="2" vertex="1">
          <mxGeometry x="720" y="80" width="200" height="60" as="geometry" />
        </mxCell>
        <mxCell id="8" value="End" style="rounded=1;whiteSpace=wrap;html=1;fillColor=#dae8fc;strokeColor=#6c8ebf;" parent="2" vertex="1">
          <mxGeometry x="1660" y="80" width="120" height="60" as="geometry" />
        </mxCell>
        <!-- Backend Steps -->
        <mxCell id="9" value="Validate Device" style="rounded=1;whiteSpace=wrap;html=1;fillColor=#d1c4e9;strokeColor=#9575cd;" parent="3" vertex="1">
          <mxGeometry x="980" y="80" width="200" height="60" as="geometry" />
        </mxCell>
        <mxCell id="10" value="Device Valid?" style="rhombus;whiteSpace=wrap;html=1;fillColor=#fffde7;strokeColor=#d6b656;" parent="3" vertex="1">
          <mxGeometry x="1240" y="80" width="120" height="80" as="geometry" />
        </mxCell>
        <mxCell id="11" value="Register Device" style="rounded=1;whiteSpace=wrap;html=1;fillColor=#d1c4e9;strokeColor=#9575cd;" parent="3" vertex="1">
          <mxGeometry x="1400" y="80" width="200" height="60" as="geometry" />
        </mxCell>
        <!-- Connections (User lane) -->
        <mxCell id="12" style="edgeStyle=orthogonalEdgeStyle;endArrow=block;html=1;" edge="1" parent="2" source="4" target="5">
          <mxGeometry relative="1" as="geometry" />
        </mxCell>
        <mxCell id="13" style="edgeStyle=orthogonalEdgeStyle;endArrow=block;html=1;" edge="1" parent="2" source="5" target="6">
          <mxGeometry relative="1" as="geometry" />
        </mxCell>
        <mxCell id="14" style="edgeStyle=orthogonalEdgeStyle;endArrow=block;html=1;" edge="1" parent="2" source="6" target="7">
          <mxGeometry relative="1" as="geometry" />
        </mxCell>
        <mxCell id="15" style="edgeStyle=orthogonalEdgeStyle;endArrow=block;html=1;dashed=1;" edge="1" parent="2" source="7" target="9">
          <mxGeometry relative="1" as="geometry" />
        </mxCell>
        <mxCell id="16" style="edgeStyle=orthogonalEdgeStyle;endArrow=block;html=1;" edge="1" parent="3" source="9" target="10">
          <mxGeometry relative="1" as="geometry" />
        </mxCell>
        <mxCell id="17" style="edgeStyle=orthogonalEdgeStyle;endArrow=block;html=1;" edge="1" parent="3" source="10" target="11">
          <mxGeometry relative="1" as="geometry" />
        </mxCell>
        <mxCell id="18" style="edgeStyle=orthogonalEdgeStyle;endArrow=block;html=1;dashed=1;" edge="1" parent="3" source="11" target="8">
          <mxGeometry relative="1" as="geometry" />
        </mxCell>
      </root>
    </mxGraphModel>
  </diagram>
</mxfile> 